<svg xmlns="http://www.w3.org/2000/svg" viewBox="0 0 512 512" role="img" aria-labelledby="title desc">
  <title id="title">Phở Hương Phú brand mark</title>
  <desc id="desc">Compact logo mark for Phở Hương Phú.</desc>
  <defs>
    <linearGradient id="bg" x1="70" x2="442" y1="42" y2="462" gradientUnits="userSpaceOnUse">
      <stop stop-color="#fff3e7"/>
      <stop offset="1" stop-color="#f8d9c7"/>
    </linearGradient>
    <linearGradient id="red" x1="134" x2="382" y1="306" y2="430" gradientUnits="userSpaceOnUse">
      <stop stop-color="#8f000d"/>
      <stop offset="1" stop-color="#d83900"/>
    </linearGradient>
    <filter id="shadow" x="80" y="80" width="352" height="352" color-interpolation-filters="sRGB" filterUnits="userSpaceOnUse">
      <feDropShadow dx="0" dy="16" stdDeviation="18" flood-color="#6b1b09" flood-opacity=".18"/>
    </filter>
  </defs>
  <rect width="512" height="512" rx="112" fill="url(#bg)"/>
  <g filter="url(#shadow)">
    <path fill="#fff8ed" d="M126 238c0-68 58-123 130-123s130 55 130 123H126Z"/>
    <path fill="#f5d1ae" d="M132 238h248c-8 70-59 122-124 122s-116-52-124-122Z"/>
    <path fill="#245d3b" d="M192 176c16-23 47-33 84-18-25 6-49 18-72 36-9-1-14-7-12-18Z"/>
    <path fill="#3b8a48" d="M299 170c29-4 54 8 67 35-28-10-54-12-79-4-5-9-1-25 12-31Z"/>
    <path fill="#b44b19" d="M182 231c30-22 61-32 94-29 28 2 51 12 70 29H182Z"/>
    <path fill="#fff9eb" d="M188 238c15 23 41 36 68 36s53-13 68-36H188Z"/>
    <path fill="#d83900" d="M271 181c11 4 25 13 38 29 2 3 2 8-1 10s-8 2-10-1c-12-15-25-21-33-24l6-14Z"/>
    <path fill="#0d5c3a" d="M210 215c31 8 61 8 92 0 4-1 9 2 10 6 1 5-2 9-6 10-34 9-68 9-101 0-5-1-7-5-6-10 1-4 6-7 11-6Z"/>
    <path fill="#194d34" d="M168 248c57 17 118 17 176 0 12-4 23 8 17 20-18 36-58 60-105 60s-87-24-105-60c-6-12 5-24 17-20Z" opacity=".18"/>
  </g>
  <path fill="url(#red)" d="M100 360c42 30 95 47 156 47s114-17 156-47c9-6 20 4 14 13-35 54-97 88-170 88s-135-34-170-88c-6-9 5-19 14-13Z"/>
  <text x="256" y="430" fill="#fff8ed" font-family="Montserrat, Arial, sans-serif" font-size="70" font-weight="900" letter-spacing="0" text-anchor="middle">PHP</text>
</svg>
